<svg id="elflq44oobjo1" xmlns="http://www.w3.org/2000/svg" xmlns:xlink="http://www.w3.org/1999/xlink" viewBox="0 0 640 640" shape-rendering="geometricPrecision" text-rendering="geometricPrecision"><defs><path id="elflq44oobjo2" d="M216.520000,174.810000C216.520000,201.910000,184.590000,223.910000,145.250000,223.910000C105.910000,223.910000,73.980000,201.910000,73.980000,174.810000C73.980000,147.710000,105.910000,125.710000,145.250000,125.710000C184.590000,125.710000,216.520000,147.710000,216.520000,174.810000Z"/><path id="elflq44oobjo3" d="M262.980000,147.360000C262.980000,168.050000,240.270000,184.840000,212.300000,184.840000C184.330000,184.840000,161.610000,168.050000,161.610000,147.360000C161.610000,126.670000,184.330000,109.880000,212.300000,109.880000C240.270000,109.880000,262.980000,126.670000,262.980000,147.360000Z"/><path id="elflq44oobjo4" d="M284.040000,184.840000C284.040000,205.530000,261.330000,222.330000,233.350000,222.330000C205.380000,222.330000,182.670000,205.530000,182.670000,184.840000C182.670000,164.160000,205.380000,147.360000,233.350000,147.360000C261.330000,147.360000,284.040000,164.160000,284.040000,184.840000Z"/><path id="elflq44oobjo5" d="M233.350000,216.520000C233.350000,237.210000,210.640000,254.010000,182.670000,254.010000C154.700000,254.010000,131.990000,237.210000,131.990000,216.520000C131.990000,195.830000,154.700000,179.040000,182.670000,179.040000C210.640000,179.040000,233.350000,195.830000,233.350000,216.520000Z"/></defs><g id="elflq44oobjo6"><g id="elflq44oobjo7"><g id="elflq44oobjo8"><use id="elflq44oobjo9" width="142.540009" height="98.200005" xlink:href="#elflq44oobjo2" transform="matrix(2.61187689009578 0 0 2.02142784257725 -113.29940090599368 -43.58900197655078)" fill="rgb(87,169,246)" stroke="none" stroke-width="1"/></g><g id="elflq44oobjo10"><use id="elflq44oobjo11" width="101.370010" height="74.970001" xlink:href="#elflq44oobjo4" transform="matrix(2.61187689009578 0 0 2.02142784257725 -181.80479436627121 -87.35291786861990)" fill="rgb(87,169,246)" stroke="none" stroke-width="1"/></g><g id="elflq44oobjo12"><use id="elflq44oobjo13" width="101.360001" height="74.970001" xlink:href="#elflq44oobjo5" transform="matrix(2.61187689009578 0 0 2.02142784257725 -78.66590775000014 -52.13962542000010)" fill="rgb(87,169,246)" stroke="none" stroke-width="1"/><use id="elflq44oobjo14" width="101.360001" height="74.970001" xlink:href="#elflq44oobjo5" transform="matrix(2.61187689009578 0 0 2.02142784257725 -194.16061875000017 -57.91934850499959)" fill="rgb(87,169,246)" stroke="none" stroke-width="1"/><use id="elflq44oobjo15" width="101.360001" height="74.970001" xlink:href="#elflq44oobjo5" transform="matrix(2.61187689009578 0 0 2.02142784257725 -194.16061875000017 -183.23967715499876)" fill="rgb(87,169,246)" stroke="none" stroke-width="1"/></g></g></g></svg>