<?xml version="1.0" encoding="UTF-8" standalone="no"?>
<!DOCTYPE svg PUBLIC "-//W3C//DTD SVG 1.1//EN" "http://www.w3.org/Graphics/SVG/1.1/DTD/svg11.dtd">
<svg version="1.1" xmlns="http://www.w3.org/2000/svg" xmlns:xlink="http://www.w3.org/1999/xlink" preserveAspectRatio="xMidYMid meet" viewBox="0 0 640 640" width="640" height="640"><defs><path d="M216.52 174.81C216.52 201.91 184.59 223.91 145.25 223.91C105.91 223.91 73.98 201.91 73.98 174.81C73.98 147.71 105.91 125.71 145.25 125.71C184.59 125.71 216.52 147.71 216.52 174.81Z" id="aBVFNqeJC"></path><path d="M262.98 147.36C262.98 168.05 240.27 184.84 212.3 184.84C184.33 184.84 161.61 168.05 161.61 147.36C161.61 126.67 184.33 109.88 212.3 109.88C240.27 109.88 262.98 126.67 262.98 147.36Z" id="aTrkxAUNH"></path><path d="M284.04 184.84C284.04 205.53 261.33 222.33 233.35 222.33C205.38 222.33 182.67 205.53 182.67 184.84C182.67 164.16 205.38 147.36 233.35 147.36C261.33 147.36 284.04 164.16 284.04 184.84Z" id="e2hoTXbBS5"></path><path d="M233.35 216.52C233.35 237.21 210.64 254.01 182.67 254.01C154.7 254.01 131.99 237.21 131.99 216.52C131.99 195.83 154.7 179.04 182.67 179.04C210.64 179.04 233.35 195.83 233.35 216.52Z" id="bzQj2B9lx"></path></defs><g><g><g><use xlink:href="#aBVFNqeJC" opacity="1" fill="#57a9f6" fill-opacity="1"></use></g><g><use xlink:href="#aTrkxAUNH" opacity="1" fill="#57a9f6" fill-opacity="1"></use></g><g><use xlink:href="#e2hoTXbBS5" opacity="1" fill="#57a9f6" fill-opacity="1"></use></g><g><use xlink:href="#bzQj2B9lx" opacity="1" fill="#57a9f6" fill-opacity="1"></use></g></g></g></svg>